<?xml version="1.0" encoding="UTF-8"?>
<svg version="1.1" xmlns="http://www.w3.org/2000/svg" width="390" height="390">
<path d="M0 0 C98.67 0 197.34 0 299 0 C299.2475 35.97 299.495 71.94 299.75 109 C299.83862305 120.33988281 299.92724609 131.67976563 300.01855469 143.36328125 C300.10009766 157.25585938 300.10009766 157.25585938 300.13311768 163.76831055 C300.15748641 168.29773612 300.19328024 172.82691357 300.23614502 177.35620117 C300.29058466 183.14881269 300.32508305 188.94123301 300.34566736 194.73406029 C300.35648766 196.8504838 300.3740801 198.96688723 300.39954519 201.0831852 C300.5789762 216.44556728 298.87103857 229.65926645 293 244 C292.51787907 245.30786021 292.04144975 246.61783057 291.5703125 247.9296875 C285.82197044 263.69038152 278.22250466 278.60023038 268 292 C267.34 292 266.68 292 266 292 C265.76667969 292.88945312 265.53335937 293.77890625 265.29296875 294.6953125 C263.8333739 298.4258782 262.22247401 300.15664756 259.3125 302.875 C256.14985599 305.90567757 253.09955698 308.92232943 250.25 312.25 C247.30499144 315.67540002 244.30988115 318.92104079 241 322 C240.34 322 239.68 322 239 322 C238.65582031 322.86431641 238.65582031 322.86431641 238.3046875 323.74609375 C236.66232058 326.58335636 234.71720352 328.06642637 232.125 330.0625 C231.26132812 330.73410156 230.39765625 331.40570313 229.5078125 332.09765625 C228.68023437 332.72542969 227.85265625 333.35320312 227 334 C226.27554688 334.57621094 225.55109375 335.15242188 224.8046875 335.74609375 C223 337 223 337 221 337 C220.7525 337.5983667 220.505 338.1967334 220.25 338.81323242 C218.79399371 341.3603903 217.43379138 342.37290654 215 343.98828125 C214.20037842 344.52622314 213.40075684 345.06416504 212.5769043 345.6184082 C211.72652588 346.1774585 210.87614746 346.73650879 210 347.3125 C208.25617524 348.47866561 206.51268192 349.64532702 204.76953125 350.8125 C203.93631348 351.36679687 203.1030957 351.92109375 202.24462891 352.4921875 C199.68509158 354.21153735 197.18248273 356.00101674 194.6875 357.8125 C190.24773371 360.95244053 185.57260558 363.61899424 180.8190918 366.24926758 C178.47134848 367.55312446 176.21303187 368.83522637 174.0859375 370.48046875 C170.94365936 372.76950657 167.48642953 374.36033921 164 376.0625 C162.93265625 376.5894043 162.93265625 376.5894043 161.84375 377.12695312 C160.47940182 377.80021822 159.11232212 378.4679847 157.7421875 379.12939453 C155.90433239 380.01572033 155.90433239 380.01572033 153.875 381.30859375 C149.82682769 382.80135729 146.2949869 381.12651734 142.51171875 379.50390625 C141.23191169 378.8668512 139.9573816 378.21911707 138.6875 377.5625 C137.99962402 377.21268066 137.31174805 376.86286133 136.60302734 376.50244141 C129.16199175 372.66174424 121.97269874 368.40376915 114.80517578 364.07958984 C113.32823214 363.19630005 111.83604401 362.33854483 110.33984375 361.48828125 C102.89576563 357.23634641 96.07871481 352.0821478 89.171875 347.0234375 C86.68431961 345.20290465 84.18256471 343.43524725 81.6015625 341.75 C78.68151933 339.78576676 76.48693855 337.48693855 74 335 C72.68036291 333.98199424 71.3459289 332.98298178 70 332 C66.68343998 329.56497917 63.88061233 326.94919834 61 324 C59.39814672 322.60151244 57.79369318 321.20600093 56.1875 319.8125 C51.91241834 315.9997605 48.42085494 311.95996741 44.94921875 307.41796875 C43.00056311 305.00069853 40.9298466 302.89432052 38.6875 300.75 C35.54239123 297.69614197 33.90530434 294.96938404 32 291 C30.79439683 289.48099648 29.56159244 287.98344827 28.3125 286.5 C23.37778054 280.45361297 19.61432145 273.88354771 16 267 C15.39027344 265.84757812 14.78054687 264.69515625 14.15234375 263.5078125 C9.3814325 253.92404793 6.46213259 244.05670878 3.78027344 233.71142578 C3.07303667 231.11442461 3.07303667 231.11442461 2.28023452 229.10080773 C0.17650721 223.42477553 -0.42361344 218.51242077 -0.36076355 212.48973083 C-0.3633316 211.57767883 -0.36589966 210.66562683 -0.36854553 209.72593689 C-0.37348095 206.68356309 -0.35699057 203.64169318 -0.34057617 200.59936523 C-0.33965652 198.37553708 -0.34005875 196.15170805 -0.34167194 193.92788029 C-0.3423477 187.98622067 -0.32499213 182.04474325 -0.30384064 176.10312653 C-0.28672378 170.52256207 -0.28594954 164.94204136 -0.28381348 159.3614502 C-0.26808734 143.05344278 -0.22620373 126.74546907 -0.1875 110.4375 C-0.125625 73.993125 -0.06375 37.54875 0 0 Z " fill="#000000" transform="translate(40,6)"/>
<path d="M0 0 C86.46 0 172.92 0 262 0 C262 44.88 262 89.76 262 136 C257.95139828 134.65046609 255.01908515 133.62486988 251.4375 131.625 C250.4990625 131.10421875 249.560625 130.5834375 248.59375 130.046875 C245.70585473 128.41266603 242.83724957 126.74610438 239.96875 125.078125 C239.06068604 124.5526709 238.15262207 124.0272168 237.21704102 123.48583984 C235.40399931 122.43511967 233.5944049 121.37842172 231.78881836 120.31494141 C222.39269202 114.26259887 222.39269202 114.26259887 211.88891602 112.27612305 C208.7959328 113.46142681 206.41219408 115.61220722 203.875 117.6875 C202.63556405 118.67596608 201.39597252 119.66423711 200.15625 120.65234375 C197.98371907 122.39827819 195.81581892 124.14958967 193.65234375 125.90673828 C191.23523653 127.86554568 188.80577316 129.80819247 186.375 131.75 C185.22040283 132.69879028 185.22040283 132.69879028 184.04248047 133.66674805 C183.31432129 134.24593994 182.58616211 134.82513184 181.8359375 135.421875 C181.19188965 135.94362305 180.5478418 136.46537109 179.88427734 137.00292969 C178 138 178 138 176.03222656 137.83227539 C173.68345053 136.87036075 171.75022427 135.68755742 169.6484375 134.26171875 C168.38386719 133.41009155 168.38386719 133.41009155 167.09375 132.54125977 C166.1965625 131.92951904 165.299375 131.31777832 164.375 130.6875 C163.44945312 130.06609131 162.52390625 129.44468262 161.5703125 128.80444336 C156.94830448 125.69824244 152.35388916 122.55679233 147.7890625 119.3671875 C146.98033691 118.80942627 146.17161133 118.25166504 145.33837891 117.67700195 C143.80832518 116.62059714 142.28671218 115.55183475 140.77490234 114.46948242 C136.94917605 111.78910857 136.94917605 111.78910857 132.484375 110.8515625 C128.74842391 112.57855876 125.55754729 114.87823628 122.25 117.3125 C120.74099108 118.39988624 119.23187316 119.48712121 117.72265625 120.57421875 C116.94809082 121.1367334 116.17352539 121.69924805 115.37548828 122.27880859 C111.49859241 125.0878647 107.59409388 127.85747502 103.6875 130.625 C102.62160645 131.38744019 102.62160645 131.38744019 101.53417969 132.1652832 C100.86676758 132.63925537 100.19935547 133.11322754 99.51171875 133.6015625 C98.92865967 134.01744629 98.34560059 134.43333008 97.74487305 134.86181641 C95.89212619 136.07036627 93.99480673 137.04759125 92 138 C91.54375244 137.69408936 91.08750488 137.38817871 90.61743164 137.07299805 C82.00969434 131.3062328 73.38552109 125.56743944 64.6875 119.9375 C63.98955322 119.48528076 63.29160645 119.03306152 62.57250977 118.56713867 C61.28235812 117.7344116 59.98809743 116.90800079 58.68896484 116.08935547 C57.24223777 115.15623951 55.8436685 114.14918158 54.45703125 113.12890625 C50.80816298 111.45239921 48.88207878 111.96845371 45 113 C41.35131713 114.60014165 37.87219113 116.46980058 34.375 118.375 C32.338559 119.46097 30.30210023 120.54690669 28.265625 121.6328125 C27.23244141 122.1887207 26.19925781 122.74462891 25.13476562 123.31738281 C20.14842141 125.99385356 15.13687282 128.62174847 10.125 131.25 C9.22185059 131.72743652 8.31870117 132.20487305 7.38818359 132.69677734 C6.56141113 133.13199707 5.73463867 133.5672168 4.8828125 134.015625 C4.15465332 134.40008789 3.42649414 134.78455078 2.67626953 135.18066406 C1 136 1 136 0 136 C0 91.12 0 46.24 0 0 Z " fill="#FDD700" transform="translate(58,25)"/>
<path d="M0 0 C1.3921875 1.2065625 1.3921875 1.2065625 2.8125 2.4375 C4.95187694 4.27915053 7.10576575 6.08400619 9.31640625 7.83984375 C16.26737892 13.36878537 22.69378283 19.32749263 29.07373047 25.50341797 C32.52342479 28.81234108 35.70544439 31.79377731 40 34 C46.04507162 29.20270869 51.87034168 24.27370234 57.5 19 C64.34625712 12.59270998 71.46212926 6.58812127 79 1 C88.87986695 6.35944256 98.27783768 12.34490747 107.65063477 18.54321289 C113.67808309 22.52256471 119.77305866 26.34018734 126 30 C124.84784123 51.12291081 114.29871666 72.19007374 102 89 C101.4121875 89.87011719 100.824375 90.74023438 100.21875 91.63671875 C94.32162419 100.19504753 87.1971146 107.54412626 80 115 C79.21786133 115.82298584 79.21786133 115.82298584 78.41992188 116.66259766 C70.86542227 124.60861142 62.79649564 131.46608558 54 138 C52.95102539 138.78358887 52.95102539 138.78358887 51.88085938 139.58300781 C37.90813657 149.97915834 23.49430437 159.16173925 8.3125 167.6875 C7.36729492 168.22963135 6.42208984 168.7717627 5.44824219 169.33032227 C4.55395508 169.82330811 3.65966797 170.31629395 2.73828125 170.82421875 C1.94462158 171.26854248 1.15096191 171.71286621 0.33325195 172.1706543 C-3.42193672 173.5054221 -5.92919577 172.47727758 -9.46923828 170.89941406 C-12.36107756 169.36093602 -15.24960658 167.81909244 -18.125 166.25 C-19.19306885 165.66798828 -20.2611377 165.08597656 -21.36157227 164.48632812 C-37.60474882 155.48749934 -52.48828126 144.54711838 -67 133 C-67.57943359 132.53916016 -68.15886719 132.07832031 -68.75585938 131.60351562 C-101.39165123 105.39540611 -123.20603923 73.41083062 -134 33 C-130.29704159 29.05814105 -126.43042371 26.05309003 -121.9375 23.0625 C-120.52537964 22.10774927 -119.11395648 21.15196678 -117.703125 20.1953125 C-116.95095703 19.68645508 -116.19878906 19.17759766 -115.42382812 18.65332031 C-110.9822618 15.62367817 -106.58720629 12.52747059 -102.1875 9.4375 C-100.49367522 8.24843343 -98.79967723 7.05961355 -97.10546875 5.87109375 C-96.38512451 5.36505615 -95.66478027 4.85901855 -94.92260742 4.33764648 C-90.11592878 0.99341889 -90.11592878 0.99341889 -88.2109375 1.1015625 C-85.02305689 2.39699102 -82.38009627 4.35125378 -79.625 6.375 C-78.70569702 7.04112305 -78.70569702 7.04112305 -77.76782227 7.72070312 C-70.41459698 13.0903506 -63.28055179 18.75195039 -56.18701172 24.45849609 C-54.42276397 25.87644084 -52.64960409 27.28255252 -50.875 28.6875 C-50.34253662 29.12191406 -49.81007324 29.55632812 -49.26147461 30.00390625 C-46.12134533 32.47443059 -45.1722319 33 -41 33 C-38.91132947 31.73642851 -38.91132947 31.73642851 -36.8125 29.875 C-35.93722656 29.14667969 -35.06195313 28.41835937 -34.16015625 27.66796875 C-33.66531738 27.24950684 -33.17047852 26.83104492 -32.66064453 26.39990234 C-29.3802687 23.634587 -26.06127885 20.9156559 -22.75 18.1875 C-22.02731934 17.5903418 -21.30463867 16.99318359 -20.56005859 16.37792969 C-13.79747959 10.80131975 -6.92272901 5.37581175 0 0 Z " fill="#FDD600" transform="translate(193,192)"/>
<path d="M0 0 C1.94429871 1.1681936 3.86044384 2.38390343 5.75390625 3.6328125 C6.85669922 4.35726562 7.95949219 5.08171875 9.09570312 5.828125 C10.25135553 6.59366932 11.40695432 7.35929458 12.5625 8.125 C13.69049053 8.86758971 14.81874384 9.60978041 15.94726562 10.3515625 C23.3191888 15.20272227 30.66186514 20.09792284 38 25 C43.23744903 22.1190625 48.08592062 18.9230842 52.9375 15.4375 C54.43077298 14.37990244 55.92426834 13.3226188 57.41796875 12.265625 C60.45583316 10.10784111 63.47581065 7.92742715 66.48828125 5.734375 C67.9085597 4.71833825 69.32912155 3.7026975 70.75 2.6875 C71.40476318 2.20144287 72.05952637 1.71538574 72.73413086 1.21459961 C77.34379491 -2.04955386 77.34379491 -2.04955386 80.40209961 -1.81860352 C83.37590447 -0.88155176 85.41804654 0.40272797 87.95703125 2.2109375 C88.89796631 2.87416016 89.83890137 3.53738281 90.80834961 4.22070312 C91.79971924 4.93162109 92.79108887 5.64253906 93.8125 6.375 C95.8721218 7.83111686 97.93201931 9.2868438 99.9921875 10.7421875 C101.00635742 11.46245117 102.02052734 12.18271484 103.06542969 12.92480469 C107.16285078 15.82231545 111.2959528 18.66608267 115.4375 21.5 C116.72789119 22.38537789 118.01825881 23.27079013 119.30859375 24.15625 C120.19675781 24.7646875 121.08492187 25.373125 122 26 C124.76655418 24.70891619 127.04962067 23.2935196 129.3984375 21.34765625 C130.03612061 20.82333008 130.67380371 20.29900391 131.33081055 19.75878906 C132.00539307 19.19901367 132.67997559 18.63923828 133.375 18.0625 C134.80547061 16.89129294 136.23647073 15.72073235 137.66796875 14.55078125 C139.79067282 12.81134978 141.91299234 11.07146536 144.03369141 9.32958984 C145.91095605 7.79373131 147.79778603 6.27049764 149.6875 4.75 C150.25065918 4.284729 150.81381836 3.81945801 151.39404297 3.34008789 C154.5929664 0.78278372 156.92217616 -0.60080735 161 -1 C163.23803711 -0.29418945 163.23803711 -0.29418945 165.52734375 0.88671875 C166.82418091 1.54426147 166.82418091 1.54426147 168.1472168 2.21508789 C169.06801025 2.70098389 169.98880371 3.18687988 170.9375 3.6875 C172.37186401 4.42504517 172.37186401 4.42504517 173.83520508 5.17749023 C200.356635 18.90442333 200.356635 18.90442333 208 24 C208.36076355 26.13870239 208.36076355 26.13870239 208.34057617 28.81689453 C208.34034958 29.81778107 208.34012299 30.8186676 208.33988953 31.84988403 C208.32440567 32.93325043 208.30892181 34.01661682 208.29296875 35.1328125 C208.28872391 36.23978485 208.28447906 37.3467572 208.28010559 38.48727417 C208.26327214 42.0334271 208.2256108 45.57901797 208.1875 49.125 C208.17245922 51.52473139 208.15876977 53.92447167 208.14648438 56.32421875 C208.11335338 62.21633859 208.06310777 68.10812915 208 74 C200.22813216 69.8894961 192.82586143 65.42169149 185.5 60.5625 C181.66953084 58.03728517 177.83626223 55.51640534 174 53 C173.00097656 52.34112793 172.00195312 51.68225586 170.97265625 51.00341797 C170.00199219 50.37193848 169.03132812 49.74045898 168.03125 49.08984375 C167.16048828 48.51999756 166.28972656 47.95015137 165.39257812 47.36303711 C163.17490396 46.09964171 161.52663545 45.29836052 159 45 C156.52181216 46.45070744 156.52181216 46.45070744 154.0625 48.6875 C152.61037109 49.93080078 152.61037109 49.93080078 151.12890625 51.19921875 C147.31619239 54.58334842 143.5836783 58.05418029 139.85791016 61.53344727 C126.2350977 74.20644583 126.2350977 74.20644583 120 77 C119.3709375 76.43152344 118.741875 75.86304688 118.09375 75.27734375 C114.0838735 71.66000034 110.07254645 68.04678738 106 64.5 C102.97245233 61.86310364 99.98062721 59.18983431 97 56.5 C96.16082031 55.74847656 95.32164062 54.99695313 94.45703125 54.22265625 C92.8745432 52.79112095 91.30792445 51.34174315 89.76171875 49.87109375 C89.07722656 49.23300781 88.39273438 48.59492188 87.6875 47.9375 C87.09324219 47.36902344 86.49898437 46.80054688 85.88671875 46.21484375 C83.39340706 44.60941945 81.93070231 44.72740199 79 45 C77.027561 46.07073048 77.027561 46.07073048 75.28515625 47.67578125 C74.60582031 48.25126709 73.92648438 48.82675293 73.2265625 49.41967773 C72.51242188 50.04430908 71.79828125 50.66894043 71.0625 51.3125 C69.54410776 52.60290394 68.02455958 53.89194886 66.50390625 55.1796875 C65.7473877 55.82518555 64.99086914 56.47068359 64.21142578 57.13574219 C60.47623885 60.28454848 56.63161359 63.28845921 52.76806641 66.27734375 C50.23434379 68.23855319 47.74272506 70.220308 45.30859375 72.3046875 C44.52613281 72.96726562 43.74367188 73.62984375 42.9375 74.3125 C42.28652344 74.88613281 41.63554687 75.45976562 40.96484375 76.05078125 C39 77 39 77 36.76953125 76.5625 C32.78451309 74.3142528 29.3175878 71.54134024 25.75 68.6875 C24.14760067 67.42388896 22.54472373 66.16088336 20.94140625 64.8984375 C20.12559082 64.25358398 19.30977539 63.60873047 18.46923828 62.94433594 C14.5651271 59.87014754 10.63012132 56.83705378 6.6875 53.8125 C5.98915039 53.27262451 5.29080078 52.73274902 4.57128906 52.17651367 C-1.35079431 47.02738277 -1.35079431 47.02738277 -8.51171875 45.1015625 C-11.40425596 46.14596369 -13.37642911 47.49519727 -15.8125 49.375 C-20.40410257 52.83104495 -25.06213673 56.14064948 -29.8125 59.375 C-33.92952355 62.1819048 -38.02968739 65.00412406 -42.06640625 67.92578125 C-42.70795654 68.39000488 -43.34950684 68.85422852 -44.01049805 69.33251953 C-45.22984667 70.21865084 -46.4462906 71.10879653 -47.65942383 72.00341797 C-51.78232426 75 -51.78232426 75 -54 75 C-54 57.84 -54 40.68 -54 23 C-47.77125 19.803125 -41.5425 16.60625 -35.125 13.3125 C-32.20744873 11.81456909 -32.20744873 11.81456909 -29.23095703 10.28637695 C-27.6565965 9.47863749 -26.08221625 8.67093646 -24.5078125 7.86328125 C-23.71689209 7.45702515 -22.92597168 7.05076904 -22.11108398 6.63220215 C-20.53963258 5.82629884 -18.96542636 5.02574 -17.38824463 4.23110962 C-15.69478304 3.35815179 -14.01989191 2.44873592 -12.35931396 1.51473999 C-11.48776672 1.03832062 -10.61621948 0.56190125 -9.71826172 0.07104492 C-8.93393768 -0.37233719 -8.14961365 -0.8157193 -7.34152222 -1.27253723 C-4.20702539 -2.24636089 -2.86071031 -1.48365558 0 0 Z " fill="#0025FD" transform="translate(112,143)"/>
<path d="M0 0 C0.66 0 1.32 0 2 0 C3.42787757 4.37705236 4.85194322 8.75531917 6.27246094 13.13476562 C6.75643517 14.62501648 7.24145687 16.11492757 7.72753906 17.60449219 C8.42527267 19.74325929 9.11925364 21.88321237 9.8125 24.0234375 C10.03123779 24.69120209 10.24997559 25.35896667 10.4753418 26.04696655 C12 30.77225659 12 30.77225659 12 33 C23.55 33 35.1 33 47 33 C41.37303852 38.62696148 41.37303852 38.62696148 38.73046875 40.68359375 C37.86736084 41.35878052 37.86736084 41.35878052 36.98681641 42.04760742 C36.39304199 42.50627197 35.79926758 42.96493652 35.1875 43.4375 C34.57310059 43.91614502 33.95870117 44.39479004 33.32568359 44.88793945 C28.9221048 48.31043106 24.48324053 51.68240201 20 55 C20.63083396 61.91914706 22.88326343 68.24467993 25.0625 74.8125 C25.80592017 77.0681766 26.54693452 79.324648 27.28515625 81.58203125 C27.61394775 82.57436768 27.94273926 83.5667041 28.28149414 84.58911133 C29 87 29 87 29 89 C25.07704999 87.25215099 21.71208611 84.75471426 18.25 82.25 C17.62528809 81.80551514 17.00057617 81.36103027 16.35693359 80.90307617 C12.98862065 78.49470181 9.78664751 75.98919361 6.625 73.3125 C3.76714419 71.10415687 2.09290184 70.70561947 -1.5 71.125 C-2.655 71.41375 -3.81 71.7025 -5 72 C-5 72.66 -5 73.32 -5 74 C-6.58886719 75.38867188 -6.58886719 75.38867188 -8.796875 76.96875 C-9.5909375 77.53980469 -10.385 78.11085938 -11.203125 78.69921875 C-12.04359375 79.29347656 -12.8840625 79.88773437 -13.75 80.5 C-14.575 81.09425781 -15.4 81.68851562 -16.25 82.30078125 C-19.74857864 84.80057212 -23.10052725 87.1636588 -27 89 C-25.43393325 81.20941415 -23.00793941 73.92639575 -20.30273438 66.46484375 C-19.99271484 65.57410156 -19.68269531 64.68335938 -19.36328125 63.765625 C-19.07751221 62.96930664 -18.79174316 62.17298828 -18.49731445 61.35253906 C-17.89627426 58.50932686 -18.0875178 56.75468992 -19 54 C-20.39045139 52.38639826 -20.39045139 52.38639826 -22.24609375 51.16796875 C-22.91447266 50.68303955 -23.58285156 50.19811035 -24.27148438 49.69848633 C-25.34366211 48.9505481 -25.34366211 48.9505481 -26.4375 48.1875 C-27.89538166 47.13398833 -29.35241287 46.07929877 -30.80859375 45.0234375 C-31.52257324 44.51135742 -32.23655273 43.99927734 -32.97216797 43.47167969 C-35.70714431 41.48679678 -38.35741349 39.41896464 -41 37.3125 C-41.78375 36.68988281 -42.5675 36.06726563 -43.375 35.42578125 C-43.91125 34.95527344 -44.4475 34.48476563 -45 34 C-45 33.67 -45 33.34 -45 33 C-33.45 33 -21.9 33 -10 33 C-8.515 27.06 -8.515 27.06 -7 21 C-5.80732509 17.23043218 -4.59333498 13.48821983 -3.3125 9.75 C-2.99216797 8.80253906 -2.67183594 7.85507813 -2.34179688 6.87890625 C-1.56539781 4.58447318 -0.78478989 2.2915736 0 0 Z " fill="#F90101" transform="translate(189,232)"/>
<path d="M0 0 C0.66 0 1.32 0 2 0 C3.26510182 3.91384919 4.52847936 7.82825034 5.7902832 11.74316406 C6.2195004 13.074045 6.64918297 14.40477594 7.0793457 15.73535156 C7.69866205 17.65129437 8.3161495 19.56782806 8.93359375 21.484375 C9.30540771 22.63647461 9.67722168 23.78857422 10.06030273 24.97558594 C10.78104633 27.295298 11.41085629 29.64342514 12 32 C29.325 32.495 29.325 32.495 47 33 C43.86748205 36.13251795 41.14966261 38.79878043 37.71484375 41.4453125 C36.93689453 42.04730469 36.15894531 42.64929688 35.35742188 43.26953125 C34.55884766 43.88183594 33.76027344 44.49414062 32.9375 45.125 C32.13505859 45.74503906 31.33261719 46.36507812 30.50585938 47.00390625 C27.02139338 49.69316216 23.52523544 52.36435616 20 55 C20.63083396 61.91914706 22.88326343 68.24467993 25.0625 74.8125 C25.80592017 77.0681766 26.54693452 79.324648 27.28515625 81.58203125 C27.61394775 82.57436768 27.94273926 83.5667041 28.28149414 84.58911133 C29 87 29 87 29 89 C25.07704999 87.25215099 21.71208611 84.75471426 18.25 82.25 C17.62528809 81.80551514 17.00057617 81.36103027 16.35693359 80.90307617 C12.98862065 78.49470181 9.78664751 75.98919361 6.625 73.3125 C3.76714419 71.10415687 2.09290184 70.70561947 -1.5 71.125 C-2.655 71.41375 -3.81 71.7025 -5 72 C-5 72.66 -5 73.32 -5 74 C-6.58886719 75.38867187 -6.58886719 75.38867187 -8.796875 76.96875 C-9.5909375 77.53980469 -10.385 78.11085938 -11.203125 78.69921875 C-12.04359375 79.29347656 -12.8840625 79.88773437 -13.75 80.5 C-14.575 81.09425781 -15.4 81.68851562 -16.25 82.30078125 C-19.74857864 84.80057212 -23.10052725 87.1636588 -27 89 C-25.43393325 81.20941415 -23.00793941 73.92639575 -20.30273438 66.46484375 C-19.99271484 65.57410156 -19.68269531 64.68335937 -19.36328125 63.765625 C-19.07751221 62.96930664 -18.79174316 62.17298828 -18.49731445 61.35253906 C-17.89627426 58.50932686 -18.0875178 56.75468992 -19 54 C-20.39045139 52.38639826 -20.39045139 52.38639826 -22.24609375 51.16796875 C-22.91447266 50.68303955 -23.58285156 50.19811035 -24.27148438 49.69848633 C-25.34366211 48.9505481 -25.34366211 48.9505481 -26.4375 48.1875 C-27.89538166 47.13398833 -29.35241287 46.07929877 -30.80859375 45.0234375 C-31.52257324 44.51135742 -32.23655273 43.99927734 -32.97216797 43.47167969 C-35.70714431 41.48679678 -38.35741349 39.41896464 -41 37.3125 C-41.78375 36.68988281 -42.5675 36.06726563 -43.375 35.42578125 C-43.91125 34.95527344 -44.4475 34.48476562 -45 34 C-45 33.67 -45 33.34 -45 33 C-33.45 33 -21.9 33 -10 33 C-8.515 27.06 -8.515 27.06 -7 21 C-5.80732509 17.23043218 -4.59333498 13.48821983 -3.3125 9.75 C-2.99216797 8.80253906 -2.67183594 7.85507812 -2.34179688 6.87890625 C-1.56539781 4.58447318 -0.78478989 2.2915736 0 0 Z " fill="#F90101" transform="translate(264,51)"/>
<path d="M0 0 C0.66 0 1.32 0 2 0 C3.42787757 4.37705236 4.85194322 8.75531917 6.27246094 13.13476562 C6.75643517 14.62501648 7.24145687 16.11492757 7.72753906 17.60449219 C8.42527267 19.74325929 9.11925364 21.88321237 9.8125 24.0234375 C10.03123779 24.69120209 10.24997559 25.35896667 10.4753418 26.04696655 C12 30.77225659 12 30.77225659 12 33 C23.55 33 35.1 33 47 33 C43.86748205 36.13251795 41.14966261 38.79878043 37.71484375 41.4453125 C36.93689453 42.04730469 36.15894531 42.64929688 35.35742188 43.26953125 C34.55884766 43.88183594 33.76027344 44.49414062 32.9375 45.125 C32.13505859 45.74503906 31.33261719 46.36507812 30.50585938 47.00390625 C27.02139338 49.69316216 23.52523544 52.36435616 20 55 C20.63083396 61.91914706 22.88326343 68.24467993 25.0625 74.8125 C25.80592017 77.0681766 26.54693452 79.324648 27.28515625 81.58203125 C27.61394775 82.57436768 27.94273926 83.5667041 28.28149414 84.58911133 C29 87 29 87 29 89 C26.03718988 87.60806182 23.45759858 85.99151044 20.8125 84.06640625 C20.03132813 83.49986328 19.25015625 82.93332031 18.4453125 82.34960938 C17.63835937 81.75986328 16.83140625 81.17011719 16 80.5625 C14.78957031 79.68368164 14.78957031 79.68368164 13.5546875 78.78710938 C7.34177756 74.27095949 7.34177756 74.27095949 4.87207031 72.31298828 C3.08860549 70.80822192 3.08860549 70.80822192 0.859375 70.92578125 C0.16328125 71.05339844 -0.5328125 71.18101563 -1.25 71.3125 C-2.4875 71.539375 -3.725 71.76625 -5 72 C-5 72.66 -5 73.32 -5 74 C-6.58886719 75.38867187 -6.58886719 75.38867187 -8.796875 76.96875 C-9.5909375 77.53980469 -10.385 78.11085938 -11.203125 78.69921875 C-12.04359375 79.29347656 -12.8840625 79.88773437 -13.75 80.5 C-14.575 81.09425781 -15.4 81.68851562 -16.25 82.30078125 C-19.74857864 84.80057212 -23.10052725 87.1636588 -27 89 C-25.43393325 81.20941415 -23.00793941 73.92639575 -20.30273438 66.46484375 C-19.99271484 65.57410156 -19.68269531 64.68335937 -19.36328125 63.765625 C-19.07751221 62.96930664 -18.79174316 62.17298828 -18.49731445 61.35253906 C-17.89627426 58.50932686 -18.0875178 56.75468992 -19 54 C-20.39045139 52.38639826 -20.39045139 52.38639826 -22.24609375 51.16796875 C-22.91447266 50.68303955 -23.58285156 50.19811035 -24.27148438 49.69848633 C-25.34366211 48.9505481 -25.34366211 48.9505481 -26.4375 48.1875 C-27.89538166 47.13398833 -29.35241287 46.07929877 -30.80859375 45.0234375 C-31.52257324 44.51135742 -32.23655273 43.99927734 -32.97216797 43.47167969 C-35.70714431 41.48679678 -38.35741349 39.41896464 -41 37.3125 C-41.78375 36.68988281 -42.5675 36.06726563 -43.375 35.42578125 C-43.91125 34.95527344 -44.4475 34.48476562 -45 34 C-45 33.67 -45 33.34 -45 33 C-33.45 33 -21.9 33 -10 33 C-8.515 27.06 -8.515 27.06 -7 21 C-5.80732509 17.23043218 -4.59333498 13.48821983 -3.3125 9.75 C-2.99216797 8.80253906 -2.67183594 7.85507812 -2.34179688 6.87890625 C-1.56539781 4.58447318 -0.78478989 2.2915736 0 0 Z " fill="#F90101" transform="translate(113,51)"/>
<path d="M0 0 C0.66 0 1.32 0 2 0 C3.42787757 4.37705236 4.85194322 8.75531917 6.27246094 13.13476562 C6.75643517 14.62501648 7.24145687 16.11492757 7.72753906 17.60449219 C8.42527267 19.74325929 9.11925364 21.88321237 9.8125 24.0234375 C10.03123779 24.69120209 10.24997559 25.35896667 10.4753418 26.04696655 C12 30.77225659 12 30.77225659 12 33 C23.55 33 35.1 33 47 33 C41.37303852 38.62696148 41.37303852 38.62696148 38.73046875 40.68359375 C37.86736084 41.35878052 37.86736084 41.35878052 36.98681641 42.04760742 C36.39304199 42.50627197 35.79926758 42.96493652 35.1875 43.4375 C34.57310059 43.91614502 33.95870117 44.39479004 33.32568359 44.88793945 C28.9221048 48.31043106 24.48324053 51.68240201 20 55 C20.63083396 61.91914706 22.88326343 68.24467993 25.0625 74.8125 C25.80592017 77.0681766 26.54693452 79.324648 27.28515625 81.58203125 C27.61394775 82.57436768 27.94273926 83.5667041 28.28149414 84.58911133 C29 87 29 87 29 89 C25.07704999 87.25215099 21.71208611 84.75471426 18.25 82.25 C17.62528809 81.80551514 17.00057617 81.36103027 16.35693359 80.90307617 C12.98862065 78.49470181 9.78664751 75.98919361 6.625 73.3125 C3.76714419 71.10415687 2.09290184 70.70561947 -1.5 71.125 C-2.655 71.41375 -3.81 71.7025 -5 72 C-5 72.66 -5 73.32 -5 74 C-6.58886719 75.38867188 -6.58886719 75.38867188 -8.796875 76.96875 C-9.5909375 77.53980469 -10.385 78.11085938 -11.203125 78.69921875 C-12.04359375 79.29347656 -12.8840625 79.88773437 -13.75 80.5 C-14.575 81.09425781 -15.4 81.68851562 -16.25 82.30078125 C-19.74857864 84.80057212 -23.10052725 87.1636588 -27 89 C-25.43393325 81.20941415 -23.00793941 73.92639575 -20.30273438 66.46484375 C-19.99271484 65.57410156 -19.68269531 64.68335938 -19.36328125 63.765625 C-19.07751221 62.96930664 -18.79174316 62.17298828 -18.49731445 61.35253906 C-17.89627426 58.50932686 -18.0875178 56.75468992 -19 54 C-20.39045139 52.38639826 -20.39045139 52.38639826 -22.24609375 51.16796875 C-22.91447266 50.68303955 -23.58285156 50.19811035 -24.27148438 49.69848633 C-25.34366211 48.9505481 -25.34366211 48.9505481 -26.4375 48.1875 C-27.89538166 47.13398833 -29.35241287 46.07929877 -30.80859375 45.0234375 C-31.52257324 44.51135742 -32.23655273 43.99927734 -32.97216797 43.47167969 C-35.70714431 41.48679678 -38.35741349 39.41896464 -41 37.3125 C-41.78375 36.68988281 -42.5675 36.06726563 -43.375 35.42578125 C-43.91125 34.95527344 -44.4475 34.48476563 -45 34 C-45 33.67 -45 33.34 -45 33 C-33.45 33 -21.9 33 -10 33 C-8.515 27.06 -8.515 27.06 -7 21 C-5.80732509 17.23043218 -4.59333498 13.48821983 -3.3125 9.75 C-2.99216797 8.80253906 -2.67183594 7.85507813 -2.34179688 6.87890625 C-1.56539781 4.58447318 -0.78478989 2.2915736 0 0 Z M0 10 C-1.33802265 14.123494 -2.66962301 18.24903352 -4 22.375 C-4.3815625 23.550625 -4.763125 24.72625 -5.15625 25.9375 C-5.5171875 27.05898438 -5.878125 28.18046875 -6.25 29.3359375 C-6.58515625 30.37282715 -6.9203125 31.4097168 -7.265625 32.47802734 C-8.09319294 34.88225441 -8.09319294 34.88225441 -8 37 C-16.91 37 -25.82 37 -35 37 C-30.66374089 41.3401911 -30.66374089 41.3401911 -26.01171875 45.11328125 C-24.95307617 45.9012207 -24.95307617 45.9012207 -23.87304688 46.70507812 C-23.15181641 47.23552734 -22.43058594 47.76597656 -21.6875 48.3125 C-20.94693359 48.86228516 -20.20636719 49.41207031 -19.44335938 49.97851562 C-17.63160324 51.32272179 -15.817141 52.66308744 -14 54 C-15.37974162 61.59356156 -17.16538757 68.7803914 -20.25 75.875 C-21.29417988 78.14069472 -21.29417988 78.14069472 -20 81 C-19.14277344 80.33613281 -18.28554687 79.67226563 -17.40234375 78.98828125 C-14.47194986 76.7222699 -11.53312055 74.4675086 -8.58984375 72.21826172 C-7.29475368 71.22586315 -6.00582464 70.22542845 -4.71875 69.22265625 C-1.4285678 66.73337367 -0.27894149 66 4 66 C4.33 66.99 4.66 67.98 5 69 C6.47106268 70.41435252 6.47106268 70.41435252 8.30859375 71.69921875 C8.97310547 72.18583984 9.63761719 72.67246094 10.32226562 73.17382812 C11.36930664 73.9230957 11.36930664 73.9230957 12.4375 74.6875 C13.13166016 75.19861328 13.82582031 75.70972656 14.54101562 76.23632812 C17.94279082 79.0184917 17.94279082 79.0184917 22 80 C22.33 80.66 22.66 81.32 23 82 C22.36848787 78.6040615 21.54976134 75.35449638 20.51953125 72.05859375 C20.10477539 70.68864258 20.10477539 70.68864258 19.68164062 69.29101562 C19.10012248 67.3818066 18.50889252 65.47552985 17.90820312 63.57226562 C17.63556641 62.66025391 17.36292969 61.74824219 17.08203125 60.80859375 C16.82655518 59.98157959 16.5710791 59.15456543 16.30786133 58.30249023 C15.92732621 55.4564738 16.39710984 54.35247886 18 52 C20.24291747 50.25171832 22.45654101 48.64038843 24.8125 47.0625 C26.05145414 46.22487897 27.28718829 45.38247389 28.51953125 44.53515625 C29.34094604 43.98420288 29.34094604 43.98420288 30.17895508 43.42211914 C32.6402197 41.50002953 34.79180481 39.20819519 37 37 C28.09 36.67 19.18 36.34 10 36 C8.68 32.04 7.36 28.08 6 24 C5.505 23.505 5.505 23.505 5 23 C4.62911153 21.38315806 4.30256403 19.75600923 4 18.125 C3.47337663 15.30262787 2.9099394 12.72981821 2 10 C1.34 10 0.68 10 0 10 Z " fill="#24110B" transform="translate(189,232)"/>
<path d="M0 0 C0.66 0 1.32 0 2 0 C3.42787757 4.37705236 4.85194322 8.75531917 6.27246094 13.13476562 C6.75643517 14.62501648 7.24145687 16.11492757 7.72753906 17.60449219 C8.42527267 19.74325929 9.11925364 21.88321237 9.8125 24.0234375 C10.03123779 24.69120209 10.24997559 25.35896667 10.4753418 26.04696655 C12 30.77225659 12 30.77225659 12 33 C23.55 33 35.1 33 47 33 C43.86748205 36.13251795 41.14966261 38.79878043 37.71484375 41.4453125 C36.93689453 42.04730469 36.15894531 42.64929688 35.35742188 43.26953125 C34.55884766 43.88183594 33.76027344 44.49414062 32.9375 45.125 C32.13505859 45.74503906 31.33261719 46.36507812 30.50585938 47.00390625 C27.02139338 49.69316216 23.52523544 52.36435616 20 55 C20.63083396 61.91914706 22.88326343 68.24467993 25.0625 74.8125 C25.80592017 77.0681766 26.54693452 79.324648 27.28515625 81.58203125 C27.61394775 82.57436768 27.94273926 83.5667041 28.28149414 84.58911133 C29 87 29 87 29 89 C26.03718988 87.60806182 23.45759858 85.99151044 20.8125 84.06640625 C20.03132813 83.49986328 19.25015625 82.93332031 18.4453125 82.34960938 C17.63835937 81.75986328 16.83140625 81.17011719 16 80.5625 C14.78957031 79.68368164 14.78957031 79.68368164 13.5546875 78.78710938 C7.34177756 74.27095949 7.34177756 74.27095949 4.87207031 72.31298828 C3.08860549 70.80822192 3.08860549 70.80822192 0.859375 70.92578125 C0.16328125 71.05339844 -0.5328125 71.18101563 -1.25 71.3125 C-2.4875 71.539375 -3.725 71.76625 -5 72 C-5 72.66 -5 73.32 -5 74 C-6.58886719 75.38867187 -6.58886719 75.38867187 -8.796875 76.96875 C-9.5909375 77.53980469 -10.385 78.11085938 -11.203125 78.69921875 C-12.04359375 79.29347656 -12.8840625 79.88773437 -13.75 80.5 C-14.575 81.09425781 -15.4 81.68851562 -16.25 82.30078125 C-19.74857864 84.80057212 -23.10052725 87.1636588 -27 89 C-25.43393325 81.20941415 -23.00793941 73.92639575 -20.30273438 66.46484375 C-19.99271484 65.57410156 -19.68269531 64.68335937 -19.36328125 63.765625 C-19.07751221 62.96930664 -18.79174316 62.17298828 -18.49731445 61.35253906 C-17.89627426 58.50932686 -18.0875178 56.75468992 -19 54 C-20.39045139 52.38639826 -20.39045139 52.38639826 -22.24609375 51.16796875 C-22.91447266 50.68303955 -23.58285156 50.19811035 -24.27148438 49.69848633 C-25.34366211 48.9505481 -25.34366211 48.9505481 -26.4375 48.1875 C-27.89538166 47.13398833 -29.35241287 46.07929877 -30.80859375 45.0234375 C-31.52257324 44.51135742 -32.23655273 43.99927734 -32.97216797 43.47167969 C-35.70714431 41.48679678 -38.35741349 39.41896464 -41 37.3125 C-41.78375 36.68988281 -42.5675 36.06726563 -43.375 35.42578125 C-43.91125 34.95527344 -44.4475 34.48476562 -45 34 C-45 33.67 -45 33.34 -45 33 C-33.45 33 -21.9 33 -10 33 C-8.515 27.06 -8.515 27.06 -7 21 C-5.80732509 17.23043218 -4.59333498 13.48821983 -3.3125 9.75 C-2.99216797 8.80253906 -2.67183594 7.85507812 -2.34179688 6.87890625 C-1.56539781 4.58447318 -0.78478989 2.2915736 0 0 Z M0 10 C-1.33802265 14.123494 -2.66962301 18.24903352 -4 22.375 C-4.3815625 23.550625 -4.763125 24.72625 -5.15625 25.9375 C-5.5171875 27.05898437 -5.878125 28.18046875 -6.25 29.3359375 C-6.58515625 30.37282715 -6.9203125 31.4097168 -7.265625 32.47802734 C-8.09319294 34.88225441 -8.09319294 34.88225441 -8 37 C-16.91 37 -25.82 37 -35 37 C-30.66374089 41.3401911 -30.66374089 41.3401911 -26.01171875 45.11328125 C-24.95307617 45.9012207 -24.95307617 45.9012207 -23.87304688 46.70507812 C-23.15181641 47.23552734 -22.43058594 47.76597656 -21.6875 48.3125 C-20.94693359 48.86228516 -20.20636719 49.41207031 -19.44335938 49.97851562 C-17.63160324 51.32272179 -15.817141 52.66308744 -14 54 C-15.37974162 61.59356156 -17.16538757 68.7803914 -20.25 75.875 C-21.29417988 78.14069472 -21.29417988 78.14069472 -20 81 C-19.14277344 80.33613281 -18.28554687 79.67226562 -17.40234375 78.98828125 C-14.47194986 76.7222699 -11.53312055 74.4675086 -8.58984375 72.21826172 C-7.29475368 71.22586315 -6.00582464 70.22542845 -4.71875 69.22265625 C-1.4285678 66.73337367 -0.27894149 66 4 66 C4.33 66.99 4.66 67.98 5 69 C6.69930019 70.51620546 6.69930019 70.51620546 8.81640625 71.91796875 C9.96206055 72.71557617 9.96206055 72.71557617 11.13085938 73.52929688 C12.33452148 74.35010742 12.33452148 74.35010742 13.5625 75.1875 C14.36880859 75.74630859 15.17511719 76.30511719 16.00585938 76.88085938 C17.99923843 78.26089103 19.99730749 79.63353508 22 81 C23.21036787 77.3688964 22.34409471 76.02145496 20.9765625 72.58984375 C19.75241796 69.34341243 18.70252795 66.06782944 17.6875 62.75 C17.32011719 61.56921875 16.95273438 60.3884375 16.57421875 59.171875 C16 56 16 56 16.46875 53.88671875 C18.80118148 51.01282996 21.7659767 49.10288945 24.8125 47.0625 C26.05145414 46.22487897 27.28718829 45.38247389 28.51953125 44.53515625 C29.34094604 43.98420288 29.34094604 43.98420288 30.17895508 43.42211914 C32.6402197 41.50002953 34.79180481 39.20819519 37 37 C28.09 36.67 19.18 36.34 10 36 C8.68 32.04 7.36 28.08 6 24 C5.505 23.505 5.505 23.505 5 23 C4.62911153 21.38315806 4.30256403 19.75600923 4 18.125 C3.47337663 15.30262787 2.9099394 12.72981821 2 10 C1.34 10 0.68 10 0 10 Z " fill="#20120C" transform="translate(113,51)"/>
<path d="M0 0 C0.66 0 1.32 0 2 0 C3.26510182 3.91384919 4.52847936 7.82825034 5.7902832 11.74316406 C6.2195004 13.074045 6.64918297 14.40477594 7.0793457 15.73535156 C7.69866205 17.65129437 8.3161495 19.56782806 8.93359375 21.484375 C9.30540771 22.63647461 9.67722168 23.78857422 10.06030273 24.97558594 C10.78104633 27.295298 11.41085629 29.64342514 12 32 C29.325 32.495 29.325 32.495 47 33 C43.86748205 36.13251795 41.14966261 38.79878043 37.71484375 41.4453125 C36.93689453 42.04730469 36.15894531 42.64929688 35.35742188 43.26953125 C34.55884766 43.88183594 33.76027344 44.49414062 32.9375 45.125 C32.13505859 45.74503906 31.33261719 46.36507812 30.50585938 47.00390625 C27.02139338 49.69316216 23.52523544 52.36435616 20 55 C20.63083396 61.91914706 22.88326343 68.24467993 25.0625 74.8125 C25.80592017 77.0681766 26.54693452 79.324648 27.28515625 81.58203125 C27.61394775 82.57436768 27.94273926 83.5667041 28.28149414 84.58911133 C29 87 29 87 29 89 C25.07704999 87.25215099 21.71208611 84.75471426 18.25 82.25 C17.62528809 81.80551514 17.00057617 81.36103027 16.35693359 80.90307617 C12.98862065 78.49470181 9.78664751 75.98919361 6.625 73.3125 C3.76714419 71.10415687 2.09290184 70.70561947 -1.5 71.125 C-2.655 71.41375 -3.81 71.7025 -5 72 C-5 72.66 -5 73.32 -5 74 C-6.58886719 75.38867187 -6.58886719 75.38867187 -8.796875 76.96875 C-9.5909375 77.53980469 -10.385 78.11085938 -11.203125 78.69921875 C-12.04359375 79.29347656 -12.8840625 79.88773437 -13.75 80.5 C-14.575 81.09425781 -15.4 81.68851562 -16.25 82.30078125 C-19.74857864 84.80057212 -23.10052725 87.1636588 -27 89 C-25.43393325 81.20941415 -23.00793941 73.92639575 -20.30273438 66.46484375 C-19.99271484 65.57410156 -19.68269531 64.68335937 -19.36328125 63.765625 C-19.07751221 62.96930664 -18.79174316 62.17298828 -18.49731445 61.35253906 C-17.89627426 58.50932686 -18.0875178 56.75468992 -19 54 C-20.39045139 52.38639826 -20.39045139 52.38639826 -22.24609375 51.16796875 C-22.91447266 50.68303955 -23.58285156 50.19811035 -24.27148438 49.69848633 C-25.34366211 48.9505481 -25.34366211 48.9505481 -26.4375 48.1875 C-27.89538166 47.13398833 -29.35241287 46.07929877 -30.80859375 45.0234375 C-31.52257324 44.51135742 -32.23655273 43.99927734 -32.97216797 43.47167969 C-35.70714431 41.48679678 -38.35741349 39.41896464 -41 37.3125 C-41.78375 36.68988281 -42.5675 36.06726563 -43.375 35.42578125 C-43.91125 34.95527344 -44.4475 34.48476562 -45 34 C-45 33.67 -45 33.34 -45 33 C-33.45 33 -21.9 33 -10 33 C-8.515 27.06 -8.515 27.06 -7 21 C-5.80732509 17.23043218 -4.59333498 13.48821983 -3.3125 9.75 C-2.99216797 8.80253906 -2.67183594 7.85507812 -2.34179688 6.87890625 C-1.56539781 4.58447318 -0.78478989 2.2915736 0 0 Z M0 10 C-1.33802265 14.123494 -2.66962301 18.24903352 -4 22.375 C-4.3815625 23.550625 -4.763125 24.72625 -5.15625 25.9375 C-5.5171875 27.05898437 -5.878125 28.18046875 -6.25 29.3359375 C-6.58515625 30.37282715 -6.9203125 31.4097168 -7.265625 32.47802734 C-8.09319294 34.88225441 -8.09319294 34.88225441 -8 37 C-16.91 37 -25.82 37 -35 37 C-30.66374089 41.3401911 -30.66374089 41.3401911 -26.01171875 45.11328125 C-24.95307617 45.9012207 -24.95307617 45.9012207 -23.87304688 46.70507812 C-23.15181641 47.23552734 -22.43058594 47.76597656 -21.6875 48.3125 C-20.94693359 48.86228516 -20.20636719 49.41207031 -19.44335938 49.97851562 C-17.63160324 51.32272179 -15.817141 52.66308744 -14 54 C-15.37974162 61.59356156 -17.16538757 68.7803914 -20.25 75.875 C-21.29417988 78.14069472 -21.29417988 78.14069472 -20 81 C-19.14277344 80.33613281 -18.28554687 79.67226562 -17.40234375 78.98828125 C-14.47194986 76.7222699 -11.53312055 74.4675086 -8.58984375 72.21826172 C-7.29475368 71.22586315 -6.00582464 70.22542845 -4.71875 69.22265625 C-1.4285678 66.73337367 -0.27894149 66 4 66 C4.33 66.99 4.66 67.98 5 69 C6.47106268 70.41435252 6.47106268 70.41435252 8.30859375 71.69921875 C8.97310547 72.18583984 9.63761719 72.67246094 10.32226562 73.17382812 C11.36930664 73.9230957 11.36930664 73.9230957 12.4375 74.6875 C13.13166016 75.19861328 13.82582031 75.70972656 14.54101562 76.23632812 C17.94279082 79.0184917 17.94279082 79.0184917 22 80 C22.33 80.66 22.66 81.32 23 82 C22.36848787 78.6040615 21.54976134 75.35449638 20.51953125 72.05859375 C20.10477539 70.68864258 20.10477539 70.68864258 19.68164062 69.29101562 C19.10012248 67.3818066 18.50889252 65.47552985 17.90820312 63.57226562 C17.63556641 62.66025391 17.36292969 61.74824219 17.08203125 60.80859375 C16.82655518 59.98157959 16.5710791 59.15456543 16.30786133 58.30249023 C15.92732621 55.4564738 16.39710984 54.35247886 18 52 C20.24291747 50.25171832 22.45654101 48.64038843 24.8125 47.0625 C26.05145414 46.22487897 27.28718829 45.38247389 28.51953125 44.53515625 C29.34094604 43.98420288 29.34094604 43.98420288 30.17895508 43.42211914 C32.6402197 41.50002953 34.79180481 39.20819519 37 37 C28.09 36.67 19.18 36.34 10 36 C8.68 32.04 7.36 28.08 6 24 C5.505 23.505 5.505 23.505 5 23 C4.62911153 21.38315806 4.30256403 19.75600923 4 18.125 C3.47337663 15.30262787 2.9099394 12.72981821 2 10 C1.34 10 0.68 10 0 10 Z " fill="#20120B" transform="translate(264,51)"/>
<path d="M0 0 C0.66 0 1.32 0 2 0 C3.42787757 4.37705236 4.85194322 8.75531917 6.27246094 13.13476562 C6.75643517 14.62501648 7.24145687 16.11492757 7.72753906 17.60449219 C8.42527267 19.74325929 9.11925364 21.88321237 9.8125 24.0234375 C10.03123779 24.69120209 10.24997559 25.35896667 10.4753418 26.04696655 C12 30.77225659 12 30.77225659 12 33 C23.55 33 35.1 33 47 33 C44 36 44 36 40.8125 36.1875 C39.884375 36.125625 38.95625 36.06375 38 36 C37.505 36.99 37.505 36.99 37 38 C28.09 37.67 19.18 37.34 10 37 C9.01 34.69 8.02 32.38 7 30 C6.484375 28.96875 5.96875 27.9375 5.4375 26.875 C3.12557737 21.58191397 2.72594709 15.6794684 2 10 C1.34 10 0.68 10 0 10 C-0.20625 11.299375 -0.4125 12.59875 -0.625 13.9375 C-2.187857 21.90117575 -5.22385679 29.39578164 -8 37 C-17.24 37.33 -26.48 37.66 -36 38 C-36 37.34 -36 36.68 -36 36 C-38.97 35.34 -41.94 34.68 -45 34 C-45 33.67 -45 33.34 -45 33 C-33.45 33 -21.9 33 -10 33 C-8.515 27.06 -8.515 27.06 -7 21 C-5.80732509 17.23043218 -4.59333498 13.48821983 -3.3125 9.75 C-2.99216797 8.80253906 -2.67183594 7.85507813 -2.34179688 6.87890625 C-1.56539781 4.58447318 -0.78478989 2.2915736 0 0 Z " fill="#393324" transform="translate(189,232)"/>
<path d="M0 0 C0.66 0 1.32 0 2 0 C3.26510182 3.91384919 4.52847936 7.82825034 5.7902832 11.74316406 C6.2195004 13.074045 6.64918297 14.40477594 7.0793457 15.73535156 C7.69866205 17.65129437 8.3161495 19.56782806 8.93359375 21.484375 C9.30540771 22.63647461 9.67722168 23.78857422 10.06030273 24.97558594 C10.78104633 27.295298 11.41085629 29.64342514 12 32 C29.325 32.495 29.325 32.495 47 33 C44 36 44 36 40.8125 36.1875 C39.884375 36.125625 38.95625 36.06375 38 36 C37.505 36.99 37.505 36.99 37 38 C28.09 37.67 19.18 37.34 10 37 C9.01 34.69 8.02 32.38 7 30 C6.484375 28.96875 5.96875 27.9375 5.4375 26.875 C3.12557737 21.58191397 2.72594709 15.6794684 2 10 C1.34 10 0.68 10 0 10 C-0.20625 11.299375 -0.4125 12.59875 -0.625 13.9375 C-2.187857 21.90117575 -5.22385679 29.39578164 -8 37 C-17.24 37.33 -26.48 37.66 -36 38 C-36 37.34 -36 36.68 -36 36 C-23.625 35.505 -23.625 35.505 -11 35 C-22.22 34.67 -33.44 34.34 -45 34 C-45 33.67 -45 33.34 -45 33 C-33.45 33 -21.9 33 -10 33 C-8.515 27.06 -8.515 27.06 -7 21 C-5.80732509 17.23043218 -4.59333498 13.48821983 -3.3125 9.75 C-2.99216797 8.80253906 -2.67183594 7.85507812 -2.34179688 6.87890625 C-1.56539781 4.58447318 -0.78478989 2.2915736 0 0 Z " fill="#403829" transform="translate(264,51)"/>
<path d="M0 0 C0.66 0 1.32 0 2 0 C3.42787757 4.37705236 4.85194322 8.75531917 6.27246094 13.13476562 C6.75643517 14.62501648 7.24145687 16.11492757 7.72753906 17.60449219 C8.42527267 19.74325929 9.11925364 21.88321237 9.8125 24.0234375 C10.03123779 24.69120209 10.24997559 25.35896667 10.4753418 26.04696655 C12 30.77225659 12 30.77225659 12 33 C23.55 33 35.1 33 47 33 C47 33.33 47 33.66 47 34 C35.78 34.33 24.56 34.66 13 35 C21.25 35.33 29.5 35.66 38 36 C37.505 36.99 37.505 36.99 37 38 C28.09 37.67 19.18 37.34 10 37 C9.01 34.69 8.02 32.38 7 30 C6.484375 28.96875 5.96875 27.9375 5.4375 26.875 C3.12557737 21.58191397 2.72594709 15.6794684 2 10 C1.34 10 0.68 10 0 10 C-0.20625 11.299375 -0.4125 12.59875 -0.625 13.9375 C-2.187857 21.90117575 -5.22385679 29.39578164 -8 37 C-17.24 37.33 -26.48 37.66 -36 38 C-36 37.34 -36 36.68 -36 36 C-23.625 35.505 -23.625 35.505 -11 35 C-22.22 34.67 -33.44 34.34 -45 34 C-45 33.67 -45 33.34 -45 33 C-33.45 33 -21.9 33 -10 33 C-8.515 27.06 -8.515 27.06 -7 21 C-5.80732509 17.23043218 -4.59333498 13.48821983 -3.3125 9.75 C-2.99216797 8.80253906 -2.67183594 7.85507812 -2.34179688 6.87890625 C-1.56539781 4.58447318 -0.78478989 2.2915736 0 0 Z " fill="#3F3322" transform="translate(113,51)"/>
<path d="M0 0 C11.22 0 22.44 0 34 0 C33.67 0.66 33.34 1.32 33 2 C24.75 2 16.5 2 8 2 C8 2.66 8 3.32 8 4 C8.77537109 4.34417969 8.77537109 4.34417969 9.56640625 4.6953125 C12.88925481 6.47674335 15.88808819 8.67068335 18.9375 10.875 C19.54529297 11.30941406 20.15308594 11.74382812 20.77929688 12.19140625 C24.26901805 14.69858457 27.66927835 17.28233338 31 20 C30.67 21.65 30.34 23.3 30 25 C29.34 25 28.68 25 28 25 C28 25.99 28 26.98 28 28 C27.34 28 26.68 28 26 28 C26.16371094 26.9790625 26.32742187 25.958125 26.49609375 24.90625 C25.95240533 20.62523882 25.73219119 20.28215873 22.59765625 17.71875 C21.10218238 16.62330413 19.58936134 15.55125554 18.0625 14.5 C16.50258437 13.369819 14.94268837 12.23961088 13.3828125 11.109375 C12.62774414 10.57505859 11.87267578 10.04074219 11.09472656 9.49023438 C8.49272982 7.63911688 5.95752271 5.71091799 3.4375 3.75 C2.75558594 3.22921875 2.07367188 2.7084375 1.37109375 2.171875 C0.91863281 1.78515625 0.46617187 1.3984375 0 1 C0 0.67 0 0.34 0 0 Z " fill="#140F0A" transform="translate(220,85)"/>
<path d="M0 0 C0.33333333 1.33333333 0.66666667 2.66666667 1 4 C1.20165771 4.62165039 1.40331543 5.24330078 1.61108398 5.88378906 C2.07716739 8.41989136 1.67705851 9.70669952 0.78515625 12.109375 C0.41596069 13.1298291 0.41596069 13.1298291 0.03930664 14.17089844 C-0.28303955 15.02200195 -0.60538574 15.87310547 -0.9375 16.75 C-1.948125 19.4725 -2.95875 22.195 -4 25 C-13.24 25.33 -22.48 25.66 -32 26 C-32 25.34 -32 24.68 -32 24 C-36.455 23.01 -36.455 23.01 -41 22 C-41 21.67 -41 21.34 -41 21 C-29.45 21 -17.9 21 -6 21 C-4.515 15.06 -4.515 15.06 -3 9 C-2.032314 5.98942135 -1.04465977 2.98474219 0 0 Z " fill="#403A2A" transform="translate(185,244)"/>
<path d="M0 0 C11.22 0 22.44 0 34 0 C33.67 0.66 33.34 1.32 33 2 C24.75 2 16.5 2 8 2 C8 2.66 8 3.32 8 4 C8.77150391 4.34224609 8.77150391 4.34224609 9.55859375 4.69140625 C12.93060398 6.49880373 15.96060036 8.70529185 19.0625 10.9375 C19.68705078 11.38029297 20.31160156 11.82308594 20.95507812 12.27929688 C21.55900391 12.71177734 22.16292969 13.14425781 22.78515625 13.58984375 C23.33051025 13.98034912 23.87586426 14.37085449 24.43774414 14.77319336 C26.09294247 16.07298577 27.54151608 17.48505157 29 19 C27.22338867 19.64257812 27.22338867 19.64257812 25 20 C23.2199707 19.12304688 23.2199707 19.12304688 21.42578125 17.71875 C20.76191406 17.20932861 20.09804687 16.69990723 19.4140625 16.17504883 C18.72054687 15.62228271 18.02703125 15.0695166 17.3125 14.5 C16.60222656 13.94916748 15.89195313 13.39833496 15.16015625 12.83081055 C13.74669007 11.73282718 12.33724709 10.62964256 10.93212891 9.52099609 C8.47721976 7.58846084 5.98648646 5.70413324 3.5 3.8125 C2.31230549 2.90178648 1.13568731 1.97479828 0 1 C0 0.67 0 0.34 0 0 Z " fill="#120E09" transform="translate(69,85)"/>
<path d="M0 0 C10.23 0 20.46 0 31 0 C27.43781369 3.56218631 23.97910633 6.79658695 20.125 10 C19.60196289 10.43860352 19.07892578 10.87720703 18.54003906 11.32910156 C15.71371458 13.6765065 12.85823833 15.79625019 9.75 17.75 C6.64654138 19.76553994 6.64654138 19.76553994 6.5625 23.3125 C6.706875 24.199375 6.85125 25.08625 7 26 C6.01 25.67 5.02 25.34 4 25 C2.8125 21.9375 2.8125 21.9375 2 19 C21.61702128 3 21.61702128 3 25 3 C25 2.34 25 1.68 25 1 C16.75 1 8.5 1 0 1 C0 0.67 0 0.34 0 0 Z " fill="#1C100C" transform="translate(202,267)"/>
<path d="M0 0 C10.23 0 20.46 0 31 0 C27.59851986 3.40148014 24.3893543 6.43208718 20.6875 9.4375 C19.73617188 10.21609375 18.78484375 10.9946875 17.8046875 11.796875 C15.3656215 13.71279871 12.87961831 15.45172606 10.3125 17.1875 C8.40356594 18.49517287 8.40356594 18.49517287 7 20 C6.32833293 23.25696104 6.32833293 23.25696104 7 26 C6.01 25.67 5.02 25.34 4 25 C2.8125 21.9375 2.8125 21.9375 2 19 C21.61702128 3 21.61702128 3 25 3 C25 2.34 25 1.68 25 1 C16.75 1 8.5 1 0 1 C0 0.67 0 0.34 0 0 Z " fill="#1A120C" transform="translate(277,86)"/>
<path d="M0 0 C0.99 0.99 1.98 1.98 3 3 C2.56766547 4.66801405 2.12880988 6.33433808 1.6875 8 C1.44386719 8.928125 1.20023437 9.85625 0.94921875 10.8125 C-0.17948165 14.6027038 -1.61141402 18.29710405 -3 22 C-12.24 22.33 -21.48 22.66 -31 23 C-31 22.34 -31 21.68 -31 21 C-18.625 20.505 -18.625 20.505 -6 20 C-17.22 19.67 -28.44 19.34 -40 19 C-40 18.67 -40 18.34 -40 18 C-28.45 18 -16.9 18 -5 18 C-3.515 12.06 -3.515 12.06 -2 6 C-1.3635564 3.99017812 -0.7160334 1.98286172 0 0 Z " fill="#594C37" transform="translate(259,66)"/>
<path d="M0 0 C16.335 0.495 16.335 0.495 33 1 C33 1.33 33 1.66 33 2 C24.75 2 16.5 2 8 2 C8 2.66 8 3.32 8 4 C8.77150391 4.34224609 8.77150391 4.34224609 9.55859375 4.69140625 C12.93060398 6.49880373 15.96060036 8.70529185 19.0625 10.9375 C19.68705078 11.38029297 20.31160156 11.82308594 20.95507812 12.27929688 C21.55900391 12.71177734 22.16292969 13.14425781 22.78515625 13.58984375 C23.33051025 13.98034912 23.87586426 14.37085449 24.43774414 14.77319336 C26.09294247 16.07298577 27.54151608 17.48505157 29 19 C27.22338867 19.64257812 27.22338867 19.64257812 25 20 C23.2199707 19.12304688 23.2199707 19.12304688 21.42578125 17.71875 C20.76191406 17.20932861 20.09804687 16.69990723 19.4140625 16.17504883 C18.72054687 15.62228271 18.02703125 15.0695166 17.3125 14.5 C16.60222656 13.94916748 15.89195312 13.39833496 15.16015625 12.83081055 C13.74669007 11.73282718 12.33724709 10.62964256 10.93212891 9.52099609 C8.47721976 7.58846084 5.98648646 5.70413324 3.5 3.8125 C2.31230549 2.90178648 1.13568731 1.97479828 0 1 C0 0.67 0 0.34 0 0 Z " fill="#120D08" transform="translate(145,266)"/>
<path d="M0 0 C2 4 2 4 5 15 C16.55 15 28.1 15 40 15 C40 15.33 40 15.66 40 16 C28.78 16.33 17.56 16.66 6 17 C14.25 17.33 22.5 17.66 31 18 C30.67 18.66 30.34 19.32 30 20 C21.09 19.67 12.18 19.34 3 19 C2.01 16.69 1.02 14.38 0 12 C-0.48726563 10.97326172 -0.48726563 10.97326172 -0.984375 9.92578125 C-2.23451598 7.29155562 -3.06329769 5.49372201 -2.6875 2.5625 C-2.460625 2.046875 -2.23375 1.53125 -2 1 C-2 1.99 -2 2.98 -2 4 C-1.34 4 -0.68 4 0 4 C0 2.68 0 1.36 0 0 Z " fill="#483C29" transform="translate(120,69)"/>
<path d="M0 0 C3.02344322 1.19129314 4.77805153 3.41859748 6.95922852 5.77197266 C7.61922852 6.43197266 8.27922852 7.09197266 8.95922852 7.77197266 C8.62922852 8.43197266 8.29922852 9.09197266 7.95922852 9.77197266 C5.0440556 8.69796158 3.18112676 7.9938709 0.95922852 5.77197266 C-1.03392818 5.74821339 -1.03392818 5.74821339 -3.16577148 6.14697266 C-5.08389648 6.45634766 -5.08389648 6.45634766 -7.04077148 6.77197266 C-7.04077148 7.43197266 -7.04077148 8.09197266 -7.04077148 8.77197266 C-10.51125002 12.17198462 -13.66260871 14.62431236 -18.54077148 15.14697266 C-19.36577148 15.02322266 -20.19077148 14.89947266 -21.04077148 14.77197266 C-17.30537042 10.84519431 -13.36644315 7.57060264 -8.97827148 4.39697266 C-8.36661133 3.93419922 -7.75495117 3.47142578 -7.12475586 2.99462891 C-2.59072866 -0.28947728 -2.59072866 -0.28947728 0 0 Z " fill="#271108" transform="translate(115.040771484375,116.22802734375)"/>
<path d="M0 0 C0.66 0 1.32 0 2 0 C2.84416163 2.53851462 3.67547299 5.08010854 4.5 7.625 C4.73847656 8.33785156 4.97695313 9.05070312 5.22265625 9.78515625 C6.57381808 13.99306024 7.28250044 17.52236798 7 22 C6.34 22 5.68 22 5 22 C4.49440092 20.56445975 3.9957251 19.1264798 3.5 17.6875 C3.08234375 16.48673828 3.08234375 16.48673828 2.65625 15.26171875 C2 13 2 13 2 10 C1.34 10 0.68 10 0 10 C-0.103125 11.11375 -0.20625 12.2275 -0.3125 13.375 C-0.6528125 15.169375 -0.6528125 15.169375 -1 17 C-1.99 17.66 -2.98 18.32 -4 19 C-4.62621031 12.11168659 -2.35806067 6.41097745 0 0 Z " fill="#1E180C" transform="translate(264,51)"/>
<path d="M0 0 C11.22 0 22.44 0 34 0 C27.16666667 6.83333333 27.16666667 6.83333333 24 9 C23.01 8.67 22.02 8.34 21 8 C22.375 6 22.375 6 24 4 C24.66 4 25.32 4 26 4 C26 3.34 26 2.68 26 2 C17.75 2 9.5 2 1 2 C0.67 1.34 0.34 0.68 0 0 Z " fill="#0B0B08" transform="translate(125,85)"/>
<path d="M0 0 C0.66 0 1.32 0 2 0 C2.84416163 2.53851462 3.67547299 5.08010854 4.5 7.625 C4.73847656 8.33785156 4.97695312 9.05070312 5.22265625 9.78515625 C6.57381808 13.99306024 7.28250044 17.52236798 7 22 C6.34 22 5.68 22 5 22 C4.49440092 20.56445975 3.9957251 19.1264798 3.5 17.6875 C3.08234375 16.48673828 3.08234375 16.48673828 2.65625 15.26171875 C2 13 2 13 2 10 C1.34 10 0.68 10 0 10 C-0.33 11.65 -0.66 13.3 -1 15 C-1.66 15 -2.32 15 -3 15 C-2.69052329 13.06201479 -2.37731166 11.12462574 -2.0625 9.1875 C-1.88847656 8.10855469 -1.71445313 7.02960937 -1.53515625 5.91796875 C-1 3 -1 3 0 0 Z " fill="#1A170B" transform="translate(113,51)"/>
<path d="M0 0 C0.66 0 1.32 0 2 0 C4.10575375 5.52760359 5.37851209 10.06997733 5 16 C4.34 16 3.68 16 3 16 C2.67 14.02 2.34 12.04 2 10 C1.34 10 0.68 10 0 10 C-0.103125 11.11375 -0.20625 12.2275 -0.3125 13.375 C-0.6528125 15.169375 -0.6528125 15.169375 -1 17 C-1.99 17.66 -2.98 18.32 -4 19 C-3.71512349 16.95737483 -3.42177949 14.91592973 -3.125 12.875 C-2.96257812 11.73804688 -2.80015625 10.60109375 -2.6328125 9.4296875 C-2.02568583 6.13921085 -1.13654367 3.14220897 0 0 Z " fill="#18150B" transform="translate(189,232)"/>
<path d="M0 0 C0.33 0.66 0.66 1.32 1 2 C1.63421875 2.2475 2.2684375 2.495 2.921875 2.75 C5.95751391 4.57594822 6.24105706 6.66888682 7.25 10 C7.58515625 11.0725 7.9203125 12.145 8.265625 13.25 C9 16 9 16 9 18 C8.34 18 7.68 18 7 18 C6.67 18.66 6.34 19.32 6 20 C4.3769747 15.74921946 2.79367877 11.48997168 1.3125 7.1875 C1.06113281 6.45917969 0.80976563 5.73085938 0.55078125 4.98046875 C0 3 0 3 0 0 Z " fill="#3A1710" transform="translate(205,290)"/>
<path d="M0 0 C0.33 0.66 0.66 1.32 1 2 C1.63421875 2.2475 2.2684375 2.495 2.921875 2.75 C5.95751391 4.57594822 6.24105706 6.66888682 7.25 10 C7.58515625 11.0725 7.9203125 12.145 8.265625 13.25 C9 16 9 16 9 18 C8.34 18 7.68 18 7 18 C6.67 18.66 6.34 19.32 6 20 C4.3769747 15.74921946 2.79367877 11.48997168 1.3125 7.1875 C1.06113281 6.45917969 0.80976563 5.73085937 0.55078125 4.98046875 C0 3 0 3 0 0 Z " fill="#3B1210" transform="translate(280,109)"/>
<path d="M0 0 C0.33 0.66 0.66 1.32 1 2 C1.63421875 2.2475 2.2684375 2.495 2.921875 2.75 C5.95751391 4.57594822 6.24105706 6.66888682 7.25 10 C7.58515625 11.0725 7.9203125 12.145 8.265625 13.25 C9 16 9 16 9 18 C8.34 18 7.68 18 7 18 C6.67 18.66 6.34 19.32 6 20 C4.3769747 15.74921946 2.79367877 11.48997168 1.3125 7.1875 C1.06113281 6.45917969 0.80976563 5.73085937 0.55078125 4.98046875 C0 3 0 3 0 0 Z " fill="#3B1210" transform="translate(129,109)"/>
<path d="M0 0 C4.28408178 0.47600909 6.08914066 3.01983449 9 6 C10.94941004 7.43786273 12.94616165 8.71038057 15 10 C14.67 10.99 14.34 11.98 14 13 C10.55698372 11.48507284 7.70483901 9.3783665 4.68359375 7.17578125 C2.86886554 5.90841886 1.02609604 4.89148226 -1 4 C-0.67 2.68 -0.34 1.36 0 0 Z " fill="#291D0B" transform="translate(189,297)"/>
<path d="M0 0 C10.23 0 20.46 0 31 0 C28.33333333 2.66666667 25.66666667 5.33333333 23 8 C22.01 7.67 21.02 7.34 20 7 C21.375 5 21.375 5 23 3 C23.66 3 24.32 3 25 3 C25 2.34 25 1.68 25 1 C16.75 1 8.5 1 0 1 C0 0.67 0 0.34 0 0 Z " fill="#070603" transform="translate(202,267)"/>
<path d="M0 0 C2.24226443 3.36339665 3.42592747 6.76340552 4.6875 10.5625 C4.92533203 11.24763672 5.16316406 11.93277344 5.40820312 12.63867188 C5.99980093 14.40652572 6.5063209 16.20234149 7 18 C6.67 18.66 6.34 19.32 6 20 C5.67 18.68 5.34 17.36 5 16 C4.01 16.33 3.02 16.66 2 17 C-0.87128839 11.13778621 -2.15361206 6.46083617 0 0 Z " fill="#341B0D" transform="translate(194,245)"/>
<path d="M0 0 C4.28408178 0.47600909 6.08914066 3.01983449 9 6 C10.94941004 7.43786273 12.94616165 8.71038057 15 10 C14.67 10.99 14.34 11.98 14 13 C10.55698372 11.48507284 7.70483901 9.3783665 4.68359375 7.17578125 C2.86886554 5.90841886 1.02609604 4.89148226 -1 4 C-0.67 2.68 -0.34 1.36 0 0 Z " fill="#291D0B" transform="translate(264,116)"/>
<path d="M0 0 C10.23 0 20.46 0 31 0 C28.33333333 2.66666667 25.66666667 5.33333333 23 8 C22.01 7.67 21.02 7.34 20 7 C21.375 5 21.375 5 23 3 C23.66 3 24.32 3 25 3 C25 2.34 25 1.68 25 1 C16.75 1 8.5 1 0 1 C0 0.67 0 0.34 0 0 Z " fill="#070603" transform="translate(277,86)"/>
<path d="M0 0 C0.33 0.99 0.66 1.98 1 3 C1.66 3 2.32 3 3 3 C3 2.34 3 1.68 3 1 C4.65 0.67 6.3 0.34 8 0 C6.80230322 3.59309034 5.5323211 4.42093253 2.5625 6.6875 C1.75941406 7.31011719 0.95632812 7.93273437 0.12890625 8.57421875 C-2 10 -2 10 -4 10 C-3.71872579 8.51882199 -3.42466268 7.04006751 -3.125 5.5625 C-2.96257812 4.73878906 -2.80015625 3.91507812 -2.6328125 3.06640625 C-2.42398438 2.38449219 -2.21515625 1.70257813 -2 1 C-1.34 0.67 -0.68 0.34 0 0 Z " fill="#191509" transform="translate(166,311)"/>
<path d="M0 0 C0.33 0.99 0.66 1.98 1 3 C1.66 3 2.32 3 3 3 C3 2.34 3 1.68 3 1 C4.65 0.67 6.3 0.34 8 0 C6.80230322 3.59309034 5.5323211 4.42093253 2.5625 6.6875 C1.75941406 7.31011719 0.95632812 7.93273437 0.12890625 8.57421875 C-2 10 -2 10 -4 10 C-3.71872579 8.51882199 -3.42466268 7.04006751 -3.125 5.5625 C-2.96257812 4.73878906 -2.80015625 3.91507813 -2.6328125 3.06640625 C-2.42398438 2.38449219 -2.21515625 1.70257813 -2 1 C-1.34 0.67 -0.68 0.34 0 0 Z " fill="#191509" transform="translate(241,130)"/>
<path d="M0 0 C0.33 0.99 0.66 1.98 1 3 C1.66 3 2.32 3 3 3 C3 2.34 3 1.68 3 1 C4.65 0.67 6.3 0.34 8 0 C6.80230322 3.59309034 5.5323211 4.42093253 2.5625 6.6875 C1.75941406 7.31011719 0.95632812 7.93273437 0.12890625 8.57421875 C-2 10 -2 10 -4 10 C-3.71872579 8.51882199 -3.42466268 7.04006751 -3.125 5.5625 C-2.96257812 4.73878906 -2.80015625 3.91507813 -2.6328125 3.06640625 C-2.42398438 2.38449219 -2.21515625 1.70257813 -2 1 C-1.34 0.67 -0.68 0.34 0 0 Z " fill="#191509" transform="translate(90,130)"/>
<path d="M0 0 C0.5 2 0.5 2 1 4 C1.21527344 4.64453125 1.43054688 5.2890625 1.65234375 5.953125 C2.1041179 8.61300878 1.48765788 10.23357057 0.5625 12.75 C0.27503906 13.54921875 -0.01242188 14.3484375 -0.30859375 15.171875 C-0.53675781 15.77515625 -0.76492187 16.3784375 -1 17 C-1.99 16.67 -2.98 16.34 -4 16 C-3.39891424 10.34979382 -1.92471317 5.33835539 0 0 Z " fill="#271D0D" transform="translate(185,244)"/>
<path d="M0 0 C4.26121515 0.47346835 6.18373138 2.96139438 9 6 C9.66 6.66 10.32 7.32 11 8 C10.67 8.66 10.34 9.32 10 10 C7.08482708 8.92598892 5.22189824 8.22189824 3 6 C1.68252676 5.30251417 0.35085807 4.63040043 -1 4 C-0.67 2.68 -0.34 1.36 0 0 Z " fill="#3C2610" transform="translate(113,116)"/>
<path d="M0 0 C4.31395349 8.01162791 4.31395349 8.01162791 3.625 12.375 C3.41875 12.91125 3.2125 13.4475 3 14 C2.67 12.02 2.34 10.04 2 8 C1.01 8 0.02 8 -1 8 C-3 5 -3 5 -2.625 2.8125 C-2.41875 2.214375 -2.2125 1.61625 -2 1 C-2 1.99 -2 2.98 -2 4 C-1.34 4 -0.68 4 0 4 C0 2.68 0 1.36 0 0 Z " fill="#543211" transform="translate(271,69)"/>
<path d="M0 0 C0.66 0 1.32 0 2 0 C2 0.99 2 1.98 2 3 C2.66 3 3.32 3 4 3 C4.33 5.97 4.66 8.94 5 12 C4.34 12 3.68 12 3 12 C2.49440092 10.56445975 1.9957251 9.1264798 1.5 7.6875 C1.2215625 6.88699219 0.943125 6.08648437 0.65625 5.26171875 C0 3 0 3 0 0 Z " fill="#110E08" transform="translate(266,61)"/>
<path d="M0 0 C0.66 0 1.32 0 2 0 C2 0.99 2 1.98 2 3 C2.66 3 3.32 3 4 3 C4.33 5.97 4.66 8.94 5 12 C4.34 12 3.68 12 3 12 C2.49440092 10.56445975 1.9957251 9.1264798 1.5 7.6875 C1.2215625 6.88699219 0.943125 6.08648437 0.65625 5.26171875 C0 3 0 3 0 0 Z " fill="#111008" transform="translate(115,61)"/>
<path d="M0 0 C3.48539917 0.64544429 6.02819057 2.10134397 9 4 C8.34 5.32 7.68 6.64 7 8 C1.125 3.375 1.125 3.375 0 0 Z " fill="#24150C" transform="translate(202,308)"/>
<path d="M0 0 C0.33 0.66 0.66 1.32 1 2 C3.01669827 3.13350534 3.01669827 3.13350534 5 4 C4.67 6.64 4.34 9.28 4 12 C2.09681116 9.14521674 1.5380901 7.58058692 0.875 4.3125 C0.70742187 3.50425781 0.53984375 2.69601562 0.3671875 1.86328125 C0.24601563 1.24839844 0.12484375 0.63351562 0 0 Z " fill="#401511" transform="translate(205,290)"/>
<path d="M0 0 C0.66 0 1.32 0 2 0 C2.33 1.98 2.66 3.96 3 6 C3.66 6 4.32 6 5 6 C5.33 7.32 5.66 8.64 6 10 C4.68 10 3.36 10 2 10 C0.68373308 6.38026598 0 3.90432869 0 0 Z " fill="#180A0A" transform="translate(271,77)"/>
<path d="M0 0 C-0.33 2.64 -0.66 5.28 -1 8 C-2.32 8.33 -3.64 8.66 -5 9 C-4.71848913 7.68528432 -4.42446661 6.37324233 -4.125 5.0625 C-3.96257812 4.33160156 -3.80015625 3.60070312 -3.6328125 2.84765625 C-2.93449973 0.80875539 -2.29775298 0 0 0 Z " fill="#1E1B0B" transform="translate(183,259)"/>
<path d="M0 0 C2.88575819 0.39803561 3.82189513 0.79009069 5.75 3.0625 C6.1625 3.701875 6.575 4.34125 7 5 C6.34 5 5.68 5 5 5 C4.67 5.66 4.34 6.32 4 7 C1.525 6.01 1.525 6.01 -1 5 C-0.67 3.35 -0.34 1.7 0 0 Z " fill="#3C2610" transform="translate(189,297)"/>
<path d="M0 0 C2.88575819 0.39803561 3.82189513 0.79009069 5.75 3.0625 C6.1625 3.701875 6.575 4.34125 7 5 C6.34 5 5.68 5 5 5 C4.67 5.66 4.34 6.32 4 7 C1.525 6.01 1.525 6.01 -1 5 C-0.67 3.35 -0.34 1.7 0 0 Z " fill="#3C2610" transform="translate(264,116)"/>
<path d="M0 0 C1.88391785 3.26545761 2.49287967 6.28111761 3 10 C2.67 9.34 2.34 8.68 2 8 C1.01 8 0.02 8 -1 8 C-3 5 -3 5 -2.625 2.8125 C-2.41875 2.214375 -2.2125 1.61625 -2 1 C-2 1.99 -2 2.98 -2 4 C-1.34 4 -0.68 4 0 4 C0 2.68 0 1.36 0 0 Z " fill="#532F10" transform="translate(120,69)"/>
<path d="M0 0 C1.51953125 1.33203125 1.51953125 1.33203125 3 3 C2.6875 5.6875 2.6875 5.6875 2 8 C1.34 7.67 0.68 7.34 0 7 C-0.66 8.98 -1.32 10.96 -2 13 C-3.18771723 9.57056481 -2.80226223 7.62215325 -1.5625 4.25 C-1.27503906 3.45078125 -0.98757813 2.6515625 -0.69140625 1.828125 C-0.46324219 1.22484375 -0.23507812 0.6215625 0 0 Z " fill="#4A3D12" transform="translate(259,66)"/>
<path d="M0 0 C0.33 0 0.66 0 1 0 C0.67 2.64 0.34 5.28 0 8 C-0.99 8 -1.98 8 -3 8 C-3.33 7.34 -3.66 6.68 -4 6 C-3.67 5.01 -3.34 4.02 -3 3 C-2.01 3 -1.02 3 0 3 C0 2.01 0 1.02 0 0 Z " fill="#3C120E" transform="translate(248,110)"/>
<path d="M0 0 C0.99 0.33 1.98 0.66 3 1 C2.34 2.32 1.68 3.64 1 5 C-0.98 5 -2.96 5 -5 5 C-3.35 3.35 -1.7 1.7 0 0 Z " fill="#3A140D" transform="translate(175,307)"/>
<path d="M0 0 C2.45823172 3.68734758 3.01242616 6.69699971 4 11 C3.34 10.67 2.68 10.34 2 10 C2 9.01 2 8.02 2 7 C1.01 7.33 0.02 7.66 -1 8 C-0.67 5.36 -0.34 2.72 0 0 Z " fill="#4B2F10" transform="translate(197,254)"/>
<path d="M0 0 C0.99 0.33 1.98 0.66 3 1 C2.34 2.32 1.68 3.64 1 5 C-0.98 5 -2.96 5 -5 5 C-3.35 3.35 -1.7 1.7 0 0 Z " fill="#3A150D" transform="translate(250,126)"/>
<path d="M0 0 C0.99 0.33 1.98 0.66 3 1 C2.34 2.32 1.68 3.64 1 5 C-0.98 5 -2.96 5 -5 5 C-3.35 3.35 -1.7 1.7 0 0 Z " fill="#3A150D" transform="translate(99,126)"/>
<path d="M0 0 C0.33 0 0.66 0 1 0 C0.125 7.75 0.125 7.75 -1 10 C-1.66 10 -2.32 10 -3 10 C-2.69201674 8.51988629 -2.378482 7.04092675 -2.0625 5.5625 C-1.88847656 4.73878906 -1.71445312 3.91507812 -1.53515625 3.06640625 C-1 1 -1 1 0 0 Z " fill="#0B0707" transform="translate(259,72)"/>
<path d="M0 0 C0.93423645 3.01031744 1.04449911 3.86650268 0 7 C0.66 7.33 1.32 7.66 2 8 C1.01 9.485 1.01 9.485 0 11 C-0.66 10.67 -1.32 10.34 -2 10 C-1.54177532 6.53058454 -1.10868317 3.32604951 0 0 Z " fill="#483D11" transform="translate(183,250)"/>
<path d="M0 0 C0.33 0.99 0.66 1.98 1 3 C1.66 3.33 2.32 3.66 3 4 C2.34 5.32 1.68 6.64 1 8 C0.01 7.67 -0.98 7.34 -2 7 C-1.34 4.69 -0.68 2.38 0 0 Z " fill="#27230F" transform="translate(255,79)"/>
<path d="M0 0 C1 4 1 4 0 6 C0.66 6 1.32 6 2 6 C1 8 1 8 -3 11 C-2.01 7.37 -1.02 3.74 0 0 Z " fill="#453813" transform="translate(110,60)"/>
<path d="M0 0 C0.66 0 1.32 0 2 0 C2.66 2.31 3.32 4.62 4 7 C2.68 6.34 1.36 5.68 0 5 C0 3.35 0 1.7 0 0 Z " fill="#100D0A" transform="translate(209,298)"/>
<path d="M0 0 C2.5 1.375 2.5 1.375 5 3 C5 3.66 5 4.32 5 5 C4.34 5 3.68 5 3 5 C2.67 5.66 2.34 6.32 2 7 C1.34 4.69 0.68 2.38 0 0 Z " fill="#3A1710" transform="translate(284,122)"/>
<path d="M0 0 C2.5 1.375 2.5 1.375 5 3 C5 3.66 5 4.32 5 5 C4.34 5 3.68 5 3 5 C2.67 5.66 2.34 6.32 2 7 C1.34 4.69 0.68 2.38 0 0 Z " fill="#3A1710" transform="translate(133,122)"/>
<path d="M0 0 C2.86724686 0.57344937 3.8614515 0.8614515 6 3 C5.67 3.66 5.34 4.32 5 5 C2.525 4.01 2.525 4.01 0 3 C0 2.01 0 1.02 0 0 Z " fill="#2D220B" transform="translate(118,121)"/>
<path d="M0 0 C0.66 0 1.32 0 2 0 C2.66 2.31 3.32 4.62 4 7 C2.68 6.34 1.36 5.68 0 5 C0 3.35 0 1.7 0 0 Z " fill="#100D0A" transform="translate(284,117)"/>
<path d="M0 0 C0.66 0 1.32 0 2 0 C2.66 2.31 3.32 4.62 4 7 C2.68 6.34 1.36 5.68 0 5 C0 3.35 0 1.7 0 0 Z " fill="#100D0A" transform="translate(133,117)"/>
</svg>
