<?xml version="1.0" encoding="UTF-8" standalone="no"?><!DOCTYPE svg PUBLIC "-//W3C//DTD SVG 1.1//EN" "http://www.w3.org/Graphics/SVG/1.1/DTD/svg11.dtd"><svg width="100%" height="100%" viewBox="0 0 2185 2185" version="1.1" xmlns="http://www.w3.org/2000/svg" xmlns:xlink="http://www.w3.org/1999/xlink" xml:space="preserve" xmlns:serif="http://www.serif.com/" style="fill-rule:evenodd;clip-rule:evenodd;stroke-linecap:round;stroke-linejoin:round;stroke-miterlimit:1.5;"><path d="M812.162,307.448l276.937,709.961l263.397,-715.192l-127.35,-50.309l-136.047,408.274l-152.758,-404.955l-124.179,52.221Z" style="stroke:#000;stroke-width:15.35px;"/><path d="M1366.32,1874.61l-276.937,-708.962l-267.398,710.192l130.35,54.31l137.048,-407.274l151.758,403.955l125.179,-52.221Z" style="stroke:#000;stroke-width:15.35px;"/><path d="M1873.89,813.432l-711.962,277.937l715.192,270.397l55.31,-133.35l-413.274,-137.047l408.955,-151.759l-54.221,-126.178Z" style="stroke:#000;stroke-width:15.35px;"/><path d="M309.344,1368.3l706.962,-276.937l-708.193,-269.397l-53.309,132.349l404.274,137.048l-402.955,149.758l53.221,127.179Z" style="stroke:#000;stroke-width:15.35px;"/><path d="M1800.61,383.592c391.036,391.036 391.036,1025.98 0,1417.01c-391.036,391.036 -1025.98,391.036 -1417.01,0c-391.036,-391.036 -391.036,-1025.98 0,-1417.01c391.036,-391.036 1025.98,-391.036 1417.01,0Z" style="fill:none;stroke:#000;stroke-width:180.63px;"/><path d="M1448.42,342.274l-306.488,700.135l694.695,-317.467l-54.496,-126.917l-387.601,191.786l179.916,-397.706l-126.026,-49.831Z" style="stroke:#000;stroke-width:15.35px;"/><path d="M342.17,735.481l696.136,305.488l-317.468,-692.695l-126.917,53.496l191.786,386.601l-391.706,-181.916l-51.831,129.026Z" style="stroke:#000;stroke-width:15.35px;"/><path d="M1842.07,1449.14l-700.136,-307.488l317.467,694.695l128.918,-53.496l-193.787,-388.601l395.706,180.916l51.832,-126.026Z" style="stroke:#000;stroke-width:15.35px;"/><path d="M732.818,1840.35l305.488,-696.136l-690.696,316.468l52.497,125.917l385.6,-189.786l-176.915,391.706l124.026,51.831Z" style="stroke:#000;stroke-width:15.35px;"/></svg>